<?xml version="1.0" standalone="no"?>
<!DOCTYPE svg PUBLIC "-//W3C//DTD SVG 20010904//EN"
 "http://www.w3.org/TR/2001/REC-SVG-20010904/DTD/svg10.dtd">
<svg version="1.0" xmlns="http://www.w3.org/2000/svg"
 width="700.000000pt" height="700.000000pt" viewBox="0 0 700.000000 700.000000"
 preserveAspectRatio="xMidYMid meet">
<metadata>
Created by potrace 1.11, written by Peter Selinger 2001-2013
</metadata>
<g transform="translate(0.000000,700.000000) scale(0.100000,-0.100000)"
fill="#000000" stroke="none">
<path d="M6 6583 c3 -16 12 -66 20 -113 9 -47 18 -96 21 -110 2 -14 13 -70 23
-125 11 -55 22 -116 25 -135 3 -19 8 -42 10 -50 2 -8 7 -28 10 -45 7 -44 14
-81 31 -175 9 -47 18 -96 20 -110 2 -14 9 -45 14 -70 5 -25 19 -94 30 -155 11
-60 22 -121 25 -135 3 -14 8 -38 10 -55 18 -104 29 -164 51 -275 14 -68 27
-138 30 -155 5 -31 20 -111 55 -295 11 -58 23 -118 25 -135 3 -16 19 -100 36
-185 33 -164 37 -218 25 -290 -4 -25 -9 -63 -12 -85 -3 -22 -8 -53 -11 -70 -7
-44 -18 -246 -18 -355 0 -105 12 -328 18 -338 2 -4 7 -36 10 -72 4 -36 18
-121 32 -190 78 -391 236 -771 457 -1099 391 -583 960 -1012 1626 -1226 105
-33 264 -74 351 -89 19 -3 46 -8 60 -11 134 -28 297 -40 525 -40 214 0 304 6
455 31 52 9 109 18 125 20 72 12 244 57 361 95 531 173 1008 487 1364 899 36
41 68 77 71 80 19 17 141 187 209 292 78 118 216 383 260 498 85 220 149 440
175 606 3 16 7 38 9 49 3 11 8 47 12 80 3 33 8 63 10 66 14 24 21 392 10 564
-7 125 -12 167 -35 306 -11 69 -12 67 43 359 27 141 32 169 41 210 3 14 8 43
11 65 3 22 12 72 20 110 8 39 17 86 21 105 3 19 6 40 7 45 2 6 7 33 11 60 10
56 9 50 18 90 4 17 8 41 11 55 3 22 25 141 40 220 2 14 19 99 36 190 18 91 34
176 36 190 3 14 11 59 19 100 8 41 17 91 20 110 3 19 10 55 15 80 5 25 12 56
14 70 4 26 23 129 30 165 4 18 32 166 43 225 2 14 11 58 19 99 7 41 12 76 10
78 -2 2 -23 -1 -47 -6 -39 -9 -318 -62 -394 -76 -16 -2 -41 -7 -55 -10 -14 -3
-47 -10 -75 -15 -27 -5 -133 -25 -235 -45 -102 -19 -198 -38 -215 -41 -16 -3
-61 -11 -100 -19 -69 -14 -298 -58 -469 -90 -49 -10 -94 -18 -100 -20 -6 -1
-33 -6 -61 -10 -27 -5 -52 -10 -55 -10 -3 -1 -23 -5 -45 -10 -22 -4 -49 -9
-60 -12 -187 -38 -192 -38 -275 3 -244 119 -575 219 -855 260 -22 3 -51 7 -65
10 -153 26 -576 26 -785 -1 -304 -39 -656 -143 -920 -272 -60 -29 -87 -38
-105 -32 -20 6 -162 33 -330 64 -51 9 -298 57 -390 75 -52 10 -167 32 -255 49
-183 35 -176 33 -315 60 -58 11 -143 27 -190 36 -47 9 -128 24 -180 35 -52 11
-124 24 -160 31 -93 16 -106 18 -183 35 -37 8 -70 14 -72 14 -2 0 -2 -12 1
-27z m3244 -3157 c0 -31 25 -100 47 -131 10 -14 40 -39 67 -57 46 -30 57 -33
130 -33 93 0 135 16 191 73 35 36 65 105 65 149 l0 23 231 0 231 0 -6 -62 c-3
-35 -7 -70 -9 -78 -2 -8 -7 -28 -11 -45 -49 -196 -208 -386 -394 -469 -23 -10
-42 -24 -42 -30 -5 -185 -4 -342 3 -380 31 -175 193 -301 376 -292 36 2 75 7
86 11 69 26 108 49 147 87 74 72 109 151 117 264 1 8 71 11 232 11 l231 1 -6
-67 c-12 -131 -39 -222 -98 -331 -50 -92 -86 -139 -158 -208 -269 -259 -679
-305 -1001 -111 -64 38 -81 51 -146 112 l-32 30 -53 -48 c-109 -99 -242 -167
-393 -201 -64 -14 -269 -13 -333 2 -370 87 -627 381 -658 754 l-6 69 231 0
c222 0 231 -1 231 -20 0 -10 1 -22 2 -26 22 -104 38 -141 84 -198 66 -84 169
-133 279 -133 111 0 191 32 265 107 82 83 107 168 104 346 -1 50 -3 122 -3
161 l-1 71 -42 19 c-226 102 -393 338 -414 586 l-6 68 231 0 231 0 0 -24z"/>
</g>
</svg>
